<svg xmlns="http://www.w3.org/2000/svg" viewBox="0 0 98 101.17"><defs><style>.cls-1{fill:#8aa1dd;}.cls-2{fill:#fff;}</style></defs><g id="레이어_2" data-name="레이어 2"><g id="레이어_2-2" data-name="레이어 2"><path class="cls-1" d="M60.27,45.46l-14.7.25C41.86,41.08,18.33,11.33,25.81,2,27.47-.06,30.25-.65,54.92.8,82,2.4,84.67,3.46,86,5.65,92,15.81,64,42,60.27,45.46Z"/><path class="cls-1" d="M97,78.08c-5.49,18.17-33.93,24.08-51.83,23C30.42,100.1,4.92,93.21.64,76.52-4.56,56.21,22.58,25,52.25,26.83,79.59,28.56,103.1,58.05,97,78.08Z"/><path class="cls-2" d="M37.55,57.2c-7.07,6.34-12.77,17.22-9.18,26.7,1.84,4.88,5.44,8.56,9.6,11.57a2.52,2.52,0,0,0,3.42-.9,2.56,2.56,0,0,0-.89-3.42,20.84,20.84,0,0,1-7.22-8.33,15.34,15.34,0,0,1-1-3.8,16.56,16.56,0,0,1,.17-3.91,19.92,19.92,0,0,1,2.71-7,32.65,32.65,0,0,1,2-3c.09-.12.56-.74.22-.3l.48-.61c.31-.38.63-.76,1-1.13a25,25,0,0,1,2.26-2.34c2.4-2.15-1.14-5.68-3.54-3.54Z"/><path class="cls-2" d="M56.25,57.54c-5,8.12-7.34,20.07-1.27,28.2,3.11,4.17,7.65,6.72,12.49,8.4a2.53,2.53,0,0,0,3.08-1.74,2.56,2.56,0,0,0-1.75-3.08,20.78,20.78,0,0,1-9.43-6s-.3-.37-.07-.06c-.12-.16-.24-.32-.35-.49s-.4-.58-.58-.88-.39-.67-.56-1c-.07-.13-.13-.27-.2-.4L57.43,80c.09.22.1.25,0,.08a16.88,16.88,0,0,1-.63-2c-.09-.35-.17-.7-.23-1,0-.14-.05-.28-.08-.42-.11-.6,0,.37,0-.18a21.73,21.73,0,0,1,0-4.19c0-.34.07-.68.11-1-.07.6,0-.25.07-.44.12-.68.26-1.36.42-2,.29-1.16.64-2.3,1-3.43.17-.49.37-1,.56-1.46.26-.66-.19.4.1-.24.09-.21.19-.42.28-.64a29.81,29.81,0,0,1,1.54-3c1.69-2.75-2.63-5.26-4.32-2.52Z"/></g></g></svg>