<svg xmlns="http://www.w3.org/2000/svg" viewBox="0 0 691.07 109.6"><defs><style>.cls-1{fill:#8aa1dd;}.cls-2{fill:#fff;}.cls-3{fill:none;stroke:#8aa1dd;stroke-miterlimit:10;stroke-width:10px;}</style></defs><g id="레이어_2" data-name="레이어 2"><g id="레이어_2-2" data-name="레이어 2"><path class="cls-1" d="M60.27,51.93l-14.7.25C41.86,47.55,18.33,17.8,25.81,8.47c1.66-2.07,4.44-2.65,29.11-1.2C82,8.87,84.67,9.92,86,12.12,92,22.28,64,48.49,60.27,51.93Z"/><path class="cls-1" d="M97,84.55c-5.49,18.16-33.93,24.08-51.83,23C30.42,106.57,4.92,99.68.64,83-4.56,62.68,22.58,31.42,52.25,33.3,79.59,35,103.1,64.52,97,84.55Z"/><path class="cls-2" d="M37.55,63.67C30.48,70,24.78,80.88,28.37,90.37c1.84,4.87,5.44,8.56,9.6,11.56a2.52,2.52,0,0,0,3.42-.89,2.57,2.57,0,0,0-.89-3.43,20.81,20.81,0,0,1-7.22-8.32,15.45,15.45,0,0,1-1-3.8,16.56,16.56,0,0,1,.17-3.91,19.85,19.85,0,0,1,2.71-7,32.65,32.65,0,0,1,2-3c.09-.12.56-.74.22-.31l.48-.6q.47-.57,1-1.14a27.69,27.69,0,0,1,2.26-2.34c2.4-2.15-1.14-5.67-3.54-3.53Z"/><path class="cls-2" d="M56.25,64c-5,8.12-7.34,20.07-1.27,28.21,3.11,4.16,7.65,6.72,12.49,8.4a2.5,2.5,0,1,0,1.33-4.82,20.86,20.86,0,0,1-9.43-6s-.3-.37-.07-.07c-.12-.15-.24-.32-.35-.48s-.4-.59-.58-.89-.39-.66-.56-1c-.07-.13-.13-.27-.2-.41l-.18-.41c.09.23.1.25,0,.09a17.5,17.5,0,0,1-.63-2c-.09-.35-.17-.7-.23-1,0-.14-.05-.29-.08-.43-.11-.59,0,.37,0-.18a21.63,21.63,0,0,1,0-4.18c0-.34.07-.68.11-1-.07.59,0-.25.07-.44.12-.68.26-1.36.42-2,.29-1.16.64-2.31,1-3.43.17-.49.37-1,.56-1.46.26-.66-.19.4.1-.24L59,69.5a29.81,29.81,0,0,1,1.54-3c1.69-2.75-2.63-5.26-4.32-2.53Z"/><path class="cls-3" d="M243.65,40.4a30.57,30.57,0,0,1,9.77,7.93,31.26,31.26,0,0,1,6.65,15.86"/><path class="cls-3" d="M236.33,14.46a61.54,61.54,0,0,0-35.39,12.81c-18,14.11-21.8,33.74-22.57,38.44"/><path class="cls-3" d="M230.84,35.81A43.55,43.55,0,0,0,207.21,68"/><path class="cls-3" d="M174.7,92a83.81,83.81,0,0,0,43.83,12.65,84.34,84.34,0,0,0,48.86-15.7"/><path class="cls-3" d="M365.4,8.27H316S290.34,25.44,316,48H365.4"/><path class="cls-3" d="M382.48,3.47s17.08,17.7,0,53.09"/><path class="cls-3" d="M413.46,35.54a31,31,0,0,0-7.59-1.63,31.64,31.64,0,0,0-13.63,1.9"/><path class="cls-3" d="M314.79,67a149.86,149.86,0,0,0,3.7,16.58c1.55,5.4,2.4,7.2,3.9,8.8,4,4.26,10,4.56,12.73,4.51"/><path class="cls-3" d="M328.49,66.36c7.15-.25,13.14-.26,17.56-.22,15.42.16,20.57,1.15,22.8,1.62A71.75,71.75,0,0,1,382.25,72a67.21,67.21,0,0,1-2.62,14A65.29,65.29,0,0,1,376,95.44c-5.66.83-11.72,1.53-18.15,2-6,.45-11.78.67-17.18.72"/><path class="cls-3" d="M512.28,14.46a61.54,61.54,0,0,0-35.39,12.81c-18,14.11-21.8,33.74-22.57,38.44"/><path class="cls-3" d="M506.79,35.81A43.55,43.55,0,0,0,483.16,68"/><path class="cls-3" d="M519.61,40.4a30.67,30.67,0,0,1,9.76,7.93A31.26,31.26,0,0,1,536,64.19"/><path class="cls-3" d="M450.66,92a83.8,83.8,0,0,0,43.82,12.65,84.31,84.31,0,0,0,48.86-15.7"/><path class="cls-3" d="M641.35,8.27H591.92s-25.62,17.17,0,39.75h49.43"/><path class="cls-3" d="M658.43,3.47s17.09,17.7,0,53.09"/><path class="cls-3" d="M689.42,35.54a31.15,31.15,0,0,0-7.6-1.63,31.61,31.61,0,0,0-13.62,1.9"/><path class="cls-3" d="M590.74,67a147.25,147.25,0,0,0,3.71,16.58c1.54,5.4,2.4,7.2,3.9,8.8,4,4.26,10,4.56,12.72,4.51"/><path class="cls-3" d="M604.45,66.36c7.14-.25,13.13-.26,17.55-.22,15.42.16,20.57,1.15,22.8,1.62A71.75,71.75,0,0,1,658.2,72,66.77,66.77,0,0,1,652,95.44c-5.66.83-11.73,1.53-18.16,2-6,.45-11.77.67-17.18.72"/></g></g></svg>